<svg width="64" height="64" viewBox="0 0 64 64" fill="none" xmlns="http://www.w3.org/2000/svg">
<g clip-path="url(#clip0_10112_2)">
<path d="M6.60938 13.6328H4.65625V8.75H9.53906V10.7031H6.60938V13.6328Z" fill="url(#paint0_linear_10112_2)"/>
<path d="M41.7656 51.7188H39.8125V49.7656H41.7656V51.7188ZM37.8594 51.7188H35.9062V49.7656H37.8594V51.7188ZM33.9531 51.7188H32V49.7656H33.9531V51.7188ZM30.0469 51.7188H28.0938V49.7656H30.0469V51.7188ZM26.1406 51.7188H24.1875V49.7656H26.1406V51.7188ZM22.2344 51.7188H20.2812V49.7656H22.2344V51.7188ZM18.3281 51.7188H16.375V49.7656H18.3281V51.7188ZM14.4219 51.7188H12.4688V49.7656H14.4219V51.7188ZM10.5156 51.7188H8.5625V49.7656H10.5156V51.7188ZM6.60938 51.7188H4.65625V49.7656H6.60938V51.7188Z" fill="url(#paint1_linear_10112_2)"/>
<path d="M41.7656 55.625H39.8125V53.6719H41.7656V55.625ZM37.8594 55.625H35.9062V53.6719H37.8594V55.625ZM33.9531 55.625H32V53.6719H33.9531V55.625ZM30.0469 55.625H28.0938V53.6719H30.0469V55.625ZM26.1406 55.625H24.1875V53.6719H26.1406V55.625ZM22.2344 55.625H20.2812V53.6719H22.2344V55.625ZM18.3281 55.625H16.375V53.6719H18.3281V55.625ZM14.4219 55.625H12.4688V53.6719H14.4219V55.625ZM10.5156 55.625H8.5625V53.6719H10.5156V55.625ZM6.60938 55.625H4.65625V53.6719H6.60938V55.625Z" fill="url(#paint2_linear_10112_2)"/>
<path d="M51.5312 8.75H59.3438V10.7031H51.5312V8.75Z" fill="url(#paint3_linear_10112_2)"/>
<path d="M51.5312 12.6562H59.3438V14.6094H51.5312V12.6562Z" fill="url(#paint4_linear_10112_2)"/>
<path d="M51.5312 16.5625H59.3438V18.5156H51.5312V16.5625Z" fill="url(#paint5_linear_10112_2)"/>
<path d="M41.7656 22.4219H36.8828V20.4688H39.8125V17.5391H41.7656V22.4219Z" fill="url(#paint6_linear_10112_2)"/>
<path d="M60.3203 4.84375H50.5547C48.9368 4.84375 47.625 6.15553 47.625 7.77344V41.9531H63.25V7.77344C63.25 6.15553 61.9382 4.84375 60.3203 4.84375ZM61.2969 40H49.5781V7.77344C49.5781 7.23413 50.0154 6.79688 50.5547 6.79688H60.3203C60.8596 6.79688 61.2969 7.23413 61.2969 7.77344V40Z" fill="url(#paint7_linear_10112_2)"/>
<path d="M42.7422 45.8594H3.67969C2.06178 45.8594 0.75 47.1712 0.75 48.7891V56.6016C0.75 58.2195 2.06178 59.5312 3.67969 59.5312H42.7422C44.3601 59.5312 45.6719 58.2195 45.6719 56.6016V48.7891C45.6719 47.1712 44.3601 45.8594 42.7422 45.8594ZM43.7188 56.6016C43.7188 57.1409 43.2815 57.5781 42.7422 57.5781H3.67969C3.14038 57.5781 2.70312 57.1409 2.70312 56.6016V48.7891C2.70312 48.2498 3.14038 47.8125 3.67969 47.8125H42.7422C43.2815 47.8125 43.7188 48.2498 43.7188 48.7891V56.6016Z" fill="url(#paint8_linear_10112_2)"/>
<path d="M54.4609 45.8594C51.7654 45.8627 49.5815 48.0466 49.5781 50.7422V54.6484C49.5781 57.345 51.7644 59.5312 54.4609 59.5312C57.1575 59.5312 59.3438 57.345 59.3438 54.6484V50.7422C59.3404 48.0466 57.1565 45.8627 54.4609 45.8594ZM57.3906 54.6484C57.3906 56.2663 56.0788 57.5781 54.4609 57.5781C52.843 57.5781 51.5312 56.2663 51.5312 54.6484V50.7422C51.5365 49.5053 52.318 48.4047 53.4844 47.9923V51.7188H55.4375V47.9923C56.6038 48.4047 57.3854 49.5053 57.3906 50.7422V54.6484Z" fill="url(#paint9_linear_10112_2)"/>
<path d="M42.7422 4.84375H3.67969C2.06178 4.84375 0.75 6.15553 0.75 7.77344V31.2109C0.75 32.8288 2.06178 34.1406 3.67969 34.1406H17.3516V38.21C17.3506 39.198 16.5495 39.999 15.5615 40H12.4688V41.9531H32V40H28.9072C27.9192 39.999 27.1181 39.198 27.1172 38.21V34.1406H42.7422C44.3601 34.1406 45.6719 32.8288 45.6719 31.2109V7.77344C45.6719 6.15553 44.3601 4.84375 42.7422 4.84375ZM18.8479 40C19.1483 39.4512 19.3056 38.8356 19.3047 38.21V34.1406H21.2578V38.291H23.2109V34.1406H25.1641V38.21C25.1631 38.8356 25.3205 39.4512 25.6209 40H18.8479ZM43.7188 31.2109C43.7188 31.7502 43.2815 32.1875 42.7422 32.1875H3.67969C3.14038 32.1875 2.70312 31.7502 2.70312 31.2109V26.3281H43.7188V31.2109ZM43.7188 24.375H2.70312V7.77344C2.70312 7.23413 3.14038 6.79688 3.67969 6.79688H42.7422C43.2815 6.79688 43.7188 7.23413 43.7188 7.77344V24.375Z" fill="url(#paint10_linear_10112_2)"/>
<path d="M56.414 30.3731V28.2812H54.4609V30.3731C52.5564 30.8648 51.3142 32.6963 51.5622 34.6475C51.8102 36.5987 53.4705 38.0617 55.4375 38.0617C57.4044 38.0617 59.0647 36.5987 59.3127 34.6475C59.5607 32.6963 58.3185 30.8648 56.414 30.3731ZM55.4375 36.0938C54.5548 36.0961 53.7809 35.5044 53.552 34.6518C53.3232 33.7992 53.696 32.8994 54.4609 32.4588V34.1406H56.414V32.4588C57.1789 32.8994 57.5517 33.7992 57.3229 34.6518C57.094 35.5044 56.3201 36.0961 55.4375 36.0938Z" fill="url(#paint11_linear_10112_2)"/>
<path d="M21.2578 28.2812H23.2109V30.2344H21.2578V28.2812Z" fill="url(#paint12_linear_10112_2)"/>
</g>
<defs>
<linearGradient id="paint0_linear_10112_2" x1="5.15532" y1="8.75" x2="9.36706" y2="9.06393" gradientUnits="userSpaceOnUse">
<stop stop-color="#C89AFC"/>
<stop offset="1" stop-color="#7C6AFA"/>
</linearGradient>
<linearGradient id="paint1_linear_10112_2" x1="8.4492" y1="49.7656" x2="19.158" y2="64.9316" gradientUnits="userSpaceOnUse">
<stop stop-color="#C89AFC"/>
<stop offset="1" stop-color="#7C6AFA"/>
</linearGradient>
<linearGradient id="paint2_linear_10112_2" x1="8.4492" y1="53.6719" x2="19.158" y2="68.8378" gradientUnits="userSpaceOnUse">
<stop stop-color="#C89AFC"/>
<stop offset="1" stop-color="#7C6AFA"/>
</linearGradient>
<linearGradient id="paint3_linear_10112_2" x1="52.3298" y1="8.75" x2="58.5528" y2="10.6054" gradientUnits="userSpaceOnUse">
<stop stop-color="#C89AFC"/>
<stop offset="1" stop-color="#7C6AFA"/>
</linearGradient>
<linearGradient id="paint4_linear_10112_2" x1="52.3298" y1="12.6562" x2="58.5528" y2="14.5116" gradientUnits="userSpaceOnUse">
<stop stop-color="#C89AFC"/>
<stop offset="1" stop-color="#7C6AFA"/>
</linearGradient>
<linearGradient id="paint5_linear_10112_2" x1="52.3298" y1="16.5625" x2="58.5528" y2="18.4179" gradientUnits="userSpaceOnUse">
<stop stop-color="#C89AFC"/>
<stop offset="1" stop-color="#7C6AFA"/>
</linearGradient>
<linearGradient id="paint6_linear_10112_2" x1="37.3819" y1="17.5391" x2="41.5936" y2="17.853" gradientUnits="userSpaceOnUse">
<stop stop-color="#C89AFC"/>
<stop offset="1" stop-color="#7C6AFA"/>
</linearGradient>
<linearGradient id="paint7_linear_10112_2" x1="49.222" y1="4.84375" x2="62.7611" y2="5.26866" gradientUnits="userSpaceOnUse">
<stop stop-color="#C89AFC"/>
<stop offset="1" stop-color="#7C6AFA"/>
</linearGradient>
<linearGradient id="paint8_linear_10112_2" x1="5.34146" y1="45.8594" x2="42.0999" y2="54.8618" gradientUnits="userSpaceOnUse">
<stop stop-color="#C89AFC"/>
<stop offset="1" stop-color="#7C6AFA"/>
</linearGradient>
<linearGradient id="paint9_linear_10112_2" x1="50.5763" y1="45.8594" x2="59.0226" y2="46.3091" gradientUnits="userSpaceOnUse">
<stop stop-color="#C89AFC"/>
<stop offset="1" stop-color="#7C6AFA"/>
</linearGradient>
<linearGradient id="paint10_linear_10112_2" x1="5.34146" y1="4.84375" x2="43.99" y2="8.33099" gradientUnits="userSpaceOnUse">
<stop stop-color="#C89AFC"/>
<stop offset="1" stop-color="#7C6AFA"/>
</linearGradient>
<linearGradient id="paint11_linear_10112_2" x1="52.3294" y1="28.2812" x2="59.0824" y2="28.6834" gradientUnits="userSpaceOnUse">
<stop stop-color="#C89AFC"/>
<stop offset="1" stop-color="#7C6AFA"/>
</linearGradient>
<linearGradient id="paint12_linear_10112_2" x1="21.4574" y1="28.2812" x2="23.1421" y2="28.4068" gradientUnits="userSpaceOnUse">
<stop stop-color="#C89AFC"/>
<stop offset="1" stop-color="#7C6AFA"/>
</linearGradient>
<clipPath id="clip0_10112_2">
<rect width="62.5" height="62.5" fill="white" transform="translate(0.75 0.9375)"/>
</clipPath>
</defs>
</svg>
