<svg width="64" height="64" viewBox="0 0 64 64" fill="none" xmlns="http://www.w3.org/2000/svg">
<g clip-path="url(#clip0_10112_16)">
<path d="M28.0938 4.84375H30.0469V12.6562H28.0938V4.84375Z" fill="url(#paint0_linear_10112_16)"/>
<path d="M33.9531 4.84375H35.9062V12.6562H33.9531V4.84375Z" fill="url(#paint1_linear_10112_16)"/>
<path d="M41.7656 14.6094V0.9375H22.2344V14.6094H18.3281V63.4375H45.6719V14.6094H41.7656ZM24.1875 2.89062H39.8125V14.6094H24.1875V2.89062ZM43.7188 61.4844H20.2812V16.5625H43.7188V61.4844Z" fill="url(#paint2_linear_10112_16)"/>
<path d="M24.187 39.8204V45.5267L31.0229 48.4564V51.8986C29.6778 52.374 28.8705 53.7497 29.1118 55.1559C29.3531 56.5626 30.5728 57.5902 31.9995 57.5902C33.4262 57.5902 34.646 56.5626 34.8872 55.1559C35.1285 53.7497 34.3212 52.374 32.9761 51.8986V44.8205L39.812 38.4728V34.1407H41.7651V28.2814H35.9058V34.1407H37.8589V37.6202L32.9761 42.1554V24.131L34.8872 26.0421L36.2682 24.6612L31.9995 20.3926L27.7309 24.6612L29.1118 26.0421L31.0229 24.131V46.332L26.1401 44.2392V39.8204C27.4853 39.3449 28.2926 37.9693 28.0513 36.5631C27.81 35.1564 26.5903 34.1288 25.1636 34.1288C23.7369 34.1288 22.5171 35.1564 22.2759 36.5631C22.0346 37.9693 22.8419 39.3449 24.187 39.8204ZM37.8589 30.2345H39.812V32.1876H37.8589V30.2345ZM31.9995 53.672C32.5388 53.672 32.9761 54.1093 32.9761 54.6486C32.9761 55.1879 32.5388 55.6251 31.9995 55.6251C31.4602 55.6251 31.0229 55.1879 31.0229 54.6486C31.0229 54.1093 31.4602 53.672 31.9995 53.672ZM25.1636 36.0939C25.7029 36.0939 26.1401 36.5311 26.1401 37.0704C26.1401 37.6097 25.7029 38.047 25.1636 38.047C24.6243 38.047 24.187 37.6097 24.187 37.0704C24.187 36.5311 24.6243 36.0939 25.1636 36.0939Z" fill="url(#paint3_linear_10112_16)"/>
</g>
<defs>
<linearGradient id="paint0_linear_10112_16" x1="28.2934" y1="4.84375" x2="29.9868" y2="4.87531" gradientUnits="userSpaceOnUse">
<stop stop-color="#C89AFC"/>
<stop offset="1" stop-color="#7C6AFA"/>
</linearGradient>
<linearGradient id="paint1_linear_10112_16" x1="34.1528" y1="4.84375" x2="35.8462" y2="4.87531" gradientUnits="userSpaceOnUse">
<stop stop-color="#C89AFC"/>
<stop offset="1" stop-color="#7C6AFA"/>
</linearGradient>
<linearGradient id="paint2_linear_10112_16" x1="21.1229" y1="0.937493" x2="44.8145" y2="1.71008" gradientUnits="userSpaceOnUse">
<stop stop-color="#C89AFC"/>
<stop offset="1" stop-color="#7C6AFA"/>
</linearGradient>
<linearGradient id="paint3_linear_10112_16" x1="24.2297" y1="20.3926" x2="41.1448" y2="21.0546" gradientUnits="userSpaceOnUse">
<stop stop-color="#C89AFC"/>
<stop offset="1" stop-color="#7C6AFA"/>
</linearGradient>
<clipPath id="clip0_10112_16">
<rect width="62.5" height="62.5" fill="white" transform="translate(0.75 0.9375)"/>
</clipPath>
</defs>
</svg>
