<svg width="16" height="16" viewBox="0 0 16 16" fill="none" xmlns="http://www.w3.org/2000/svg">
<g clip-path="url(#clip0_10112_47)">
<path d="M10.8125 0.3125H5.1875C2.59906 0.3125 0.5 2.41156 0.5 5V10.625C0.5 13.2134 2.59906 15.3125 5.1875 15.3125H10.8125C13.4009 15.3125 15.5 13.2134 15.5 10.625V5C15.5 2.41156 13.4009 0.3125 10.8125 0.3125ZM14.0938 10.625C14.0938 12.4344 12.6219 13.9062 10.8125 13.9062H5.1875C3.37812 13.9062 1.90625 12.4344 1.90625 10.625V5C1.90625 3.19062 3.37812 1.71875 5.1875 1.71875H10.8125C12.6219 1.71875 14.0938 3.19062 14.0938 5V10.625Z" fill="white"/>
<path d="M8 4.0625C5.92906 4.0625 4.25 5.74156 4.25 7.8125C4.25 9.88344 5.92906 11.5625 8 11.5625C10.0709 11.5625 11.75 9.88344 11.75 7.8125C11.75 5.74156 10.0709 4.0625 8 4.0625ZM8 10.1562C6.70812 10.1562 5.65625 9.10437 5.65625 7.8125C5.65625 6.51969 6.70812 5.46875 8 5.46875C9.29187 5.46875 10.3438 6.51969 10.3438 7.8125C10.3438 9.10437 9.29187 10.1562 8 10.1562Z" fill="white"/>
<path d="M12.0304 4.28062C12.3064 4.28062 12.5301 4.05691 12.5301 3.78094C12.5301 3.50497 12.3064 3.28125 12.0304 3.28125C11.7545 3.28125 11.5308 3.50497 11.5308 3.78094C11.5308 4.05691 11.7545 4.28062 12.0304 4.28062Z" fill="white"/>
</g>
<defs>
<clipPath id="clip0_10112_47">
<rect width="15" height="15" fill="white" transform="translate(0.5 0.3125)"/>
</clipPath>
</defs>
</svg>
