<svg width="16" height="16" viewBox="0 0 16 16" fill="none" xmlns="http://www.w3.org/2000/svg">
<g clip-path="url(#clip0_10112_31)">
<path fill-rule="evenodd" clip-rule="evenodd" d="M13.8516 9.53567C13.8516 9.53567 15.0643 10.7334 15.3643 11.2877C15.3702 11.2957 15.3747 11.3045 15.3778 11.3139C15.5001 11.5187 15.5301 11.6792 15.4701 11.7977C15.3688 11.9934 15.0261 12.0917 14.9098 12.0999H12.7663C12.6171 12.0999 12.3066 12.0609 11.9286 11.7999C11.6398 11.5982 11.3526 11.2659 11.0743 10.9412C10.6588 10.4589 10.2996 10.0404 9.93582 10.0404C9.88988 10.0403 9.84424 10.0479 9.80082 10.0629C9.52557 10.1499 9.17607 10.5422 9.17607 11.5869C9.17607 11.9139 8.91807 12.0999 8.73732 12.0999H7.75557C7.42107 12.0999 5.67957 11.9829 4.13532 10.3547C2.24307 8.36117 0.543568 4.36216 0.527068 4.32691C0.421318 4.06816 0.643318 3.92716 0.883318 3.92716H3.04782C3.33807 3.92716 3.43257 4.10266 3.49857 4.26016C3.57507 4.44091 3.85857 5.16391 4.32357 5.97616C5.07657 7.29766 5.53932 7.83542 5.90907 7.83542C5.97853 7.83562 6.04683 7.81751 6.10707 7.78292C6.59007 7.51742 6.50007 5.79241 6.47757 5.43691C6.47757 5.36791 6.47682 4.66666 6.22932 4.32766C6.05232 4.08466 5.75082 3.99016 5.56857 3.95566C5.61732 3.88516 5.72082 3.77716 5.85357 3.71341C6.18432 3.54841 6.78207 3.52441 7.37532 3.52441H7.70457C8.34807 3.53341 8.51457 3.57466 8.74857 3.63391C9.21957 3.74641 9.22857 4.05166 9.18732 5.09116C9.17532 5.38816 9.16257 5.72266 9.16257 6.11641C9.16257 6.20041 9.15882 6.29416 9.15882 6.38941C9.14457 6.92266 9.12582 7.52342 9.50232 7.77017C9.55115 7.80058 9.60754 7.81669 9.66507 7.81666C9.79557 7.81666 10.1863 7.81667 11.2461 5.99791C11.7111 5.19466 12.0711 4.24741 12.0958 4.17616C12.1168 4.13641 12.1798 4.02466 12.2563 3.97966C12.3107 3.95071 12.3717 3.93625 12.4333 3.93766H14.9796C15.2571 3.93766 15.4453 3.97966 15.4821 4.08466C15.5436 4.25491 15.4701 4.77466 14.3076 6.34666C14.1118 6.60841 13.9401 6.83492 13.7893 7.03292C12.7356 8.41592 12.7356 8.48567 13.8516 9.53567Z" fill="white"/>
</g>
<defs>
<clipPath id="clip0_10112_31">
<rect x="0.5" y="0.3125" width="15" height="15" fill="white"/>
</clipPath>
</defs>
</svg>
