<svg width="16" height="16" viewBox="0 0 16 16" fill="none" xmlns="http://www.w3.org/2000/svg">
<path d="M14.2858 4.65312C14.2111 4.37564 14.0649 4.12265 13.8617 3.91945C13.6585 3.71626 13.4055 3.57 13.128 3.49531C12.1061 3.21875 7.99986 3.21875 7.99986 3.21875C7.99986 3.21875 3.89361 3.21875 2.87174 3.49531C2.59426 3.57 2.34126 3.71626 2.13807 3.91945C1.93488 4.12265 1.78862 4.37564 1.71393 4.65312C1.52312 5.69528 1.43053 6.75304 1.43736 7.8125C1.43053 8.87196 1.52312 9.92972 1.71393 10.9719C1.78862 11.2494 1.93488 11.5024 2.13807 11.7055C2.34126 11.9087 2.59426 12.055 2.87174 12.1297C3.89361 12.4062 7.99986 12.4062 7.99986 12.4062C7.99986 12.4062 12.1061 12.4062 13.128 12.1297C13.4055 12.055 13.6585 11.9087 13.8617 11.7055C14.0649 11.5024 14.2111 11.2494 14.2858 10.9719C14.4766 9.92972 14.5692 8.87196 14.5624 7.8125C14.5692 6.75304 14.4766 5.69528 14.2858 4.65312ZM6.68736 9.78125V5.84375L10.0952 7.8125L6.68736 9.78125Z" fill="white"/>
</svg>
